<svg id="Paper" xmlns="http://www.w3.org/2000/svg" width="134.707" height="204.047" viewBox="0 0 134.707 204.047">
  <g id="Path_1" data-name="Path 1" transform="translate(-14.382 73.047)" fill="#fff" stroke-linecap="round">
    <path d="M 80.99999237060547 127 C 70.84634399414062 127 61.68387222290039 125.1316452026367 53.7670783996582 121.4468231201172 C 46.50357818603516 118.0661163330078 40.25434494018555 113.1455612182617 35.19293212890625 106.8218536376953 C 30.42251968383789 100.8617324829102 26.74907875061035 93.7281494140625 24.27457809448242 85.61923217773438 C 21.8969612121582 77.82773590087891 20.69140243530273 69.38034820556641 20.69140243530273 60.51173400878906 C 20.69140243530273 53.13382339477539 20.30463790893555 44.00379180908203 19.81499099731445 32.44476318359375 C 19.44949150085449 23.81626319885254 19.03522682189941 14.0364990234375 18.71228408813477 3.146028280258179 C 18.23320770263672 -13.01204013824463 18.38736343383789 -17.65129089355469 18.4842472076416 -18.93137741088867 C 18.68646049499512 -19.42776870727539 19.56380462646484 -21.52260208129883 20.81796073913574 -23.67520713806152 C 21.59746170043945 -25.01311874389648 22.35981369018555 -26.09953117370605 23.0838737487793 -26.90426635742188 C 23.68453025817871 -27.57186317443848 24.101318359375 -27.86915397644043 24.32122230529785 -27.9959831237793 C 24.74671936035156 -27.69162178039551 25.94487380981445 -26.58647727966309 27.69366645812988 -22.97226524353027 C 29.26419639587402 -19.72644233703613 30.67804908752441 -15.7233247756958 31.81410789489746 -12.5067663192749 L 31.8556957244873 -12.38897228240967 C 34.58258056640625 -4.668912887573242 38.9004020690918 28.65732192993164 40.33401870727539 40.84702682495117 L 48.29051971435547 40.02105712890625 C 48.24810791015625 39.55005645751953 44.02807998657227 -7.382736682891846 42.21408081054688 -33.55788421630859 C 41.7616081237793 -40.08591461181641 41.64405059814453 -45.55953216552734 41.86466598510742 -49.82673645019531 C 41.99946212768555 -52.43444061279297 42.25969696044922 -54.59555816650391 42.63810729980469 -56.25006103515625 C 42.86576461791992 -57.24539566040039 43.09943389892578 -57.89179992675781 43.28270721435547 -58.29691696166992 C 43.57085037231445 -58.08815383911133 43.96564102172852 -57.75358963012695 44.46443176269531 -57.22214889526367 C 45.46487426757812 -56.15623474121094 46.56634521484375 -54.62514877319336 47.64981460571289 -52.79447174072266 C 49.89328384399414 -49.00382614135742 52.03166580200195 -43.984619140625 53.51663589477539 -39.02388381958008 C 54.91546249389648 -34.35114669799805 56.4344596862793 -28.17029571533203 58.03140258789062 -20.6529712677002 L 65.88634490966797 -22.16141319274902 L 62.40293502807617 -42.43845367431641 C 62.31323623657227 -43.36500930786133 61.78654479980469 -48.99653244018555 61.62157821655273 -55.08579635620117 C 61.42398452758789 -62.37877655029297 61.85152435302734 -66.17901611328125 62.24444198608398 -68.08306121826172 C 62.70338439941406 -67.68753814697266 63.27284622192383 -67.13755035400391 63.95619583129883 -66.37493896484375 C 65.58013916015625 -64.56264495849609 67.38263702392578 -62.06276702880859 69.16881561279297 -59.14556121826172 C 72.80775451660156 -53.20244216918945 75.97825622558594 -46.19058990478516 77.44307708740234 -40.8463249206543 C 79.12178802490234 -34.72182464599609 80.99978637695312 -27.3777961730957 82.87407684326172 -19.60820770263672 L 90.69613647460938 -21.27211952209473 C 87.87366485595703 -36.56717681884766 85.26560974121094 -51.29714965820312 85.23957824707031 -51.44414901733398 L 85.22384643554688 -51.53314971923828 L 85.20407867431641 -51.6213264465332 C 85.19898986816406 -51.64438247680664 84.59349060058594 -54.40758895874023 84.45016479492188 -57.64220809936523 C 84.29437255859375 -61.15735244750977 84.76966857910156 -63.96388244628906 85.72148895263672 -65.14968109130859 C 85.87283325195312 -65.33819580078125 86.05123138427734 -65.52403259277344 86.37928009033203 -65.641845703125 C 89.65991973876953 -63.01699447631836 91.34632873535156 -61.63710021972656 93.19175720214844 -58.73626708984375 C 95.15613555908203 -55.64838409423828 97.38490295410156 -50.68959045410156 101.4151382446289 -40.43994140625 C 104.7513122558594 -31.95538330078125 108.4982833862305 -19.58241271972656 112.2509613037109 -4.658648490905762 C 115.1021118164062 6.679792881011963 116.968635559082 15.57073402404785 116.9871673583984 15.65923404693604 L 117.6356964111328 18.7575569152832 L 120.8001708984375 18.83852767944336 C 120.8377532958984 18.83949851989746 124.6542282104492 18.9410572052002 128.8628997802734 19.322998046875 C 135.8451538085938 19.95668983459473 137.8610992431641 20.80459022521973 138.2305145263672 20.99012565612793 C 140.4859619140625 23.18018341064453 142.2920684814453 27.19718170166016 143.4596099853516 32.62476348876953 C 144.5807800292969 37.83687973022461 145.1283416748047 44.26744079589844 145.0870208740234 51.73785018920898 C 145.0110168457031 65.47723388671875 142.9479675292969 79.56746673583984 141.0632781982422 86.84482574462891 C 140.3381042480469 89.64496612548828 138.8928070068359 94.01114654541016 136.1255798339844 98.90973663330078 C 133.3269653320312 103.8639373779297 129.7920837402344 108.2816162109375 125.6191940307617 112.0400314331055 C 120.5947265625 116.5654067993164 114.643928527832 120.1188201904297 107.9321060180664 122.6015319824219 C 100.0417861938477 125.520149230957 90.98049163818359 127 80.99999237060547 127 Z" stroke="none"/>
    <path d="M 88.43700408935547 -58.40088653564453 C 88.48564910888672 -56.45840454101562 88.73355102539062 -54.18834686279297 89.17838287353516 -52.1412353515625 C 89.18018341064453 -52.131103515625 91.77815246582031 -37.45077514648438 94.53945159912109 -22.4222412109375 C 103.6894836425781 15.50765991210938 102.9088821411133 16.49689483642578 100.3223876953125 19.77459335327148 L 97.87558746337891 22.84776306152344 L 93.987548828125 22.83979415893555 L 93.03585052490234 22.83786010742188 L 92.11115264892578 22.61269378662109 C 86.33211517333984 21.20545959472656 86.33211517333984 21.20545959472656 78.98561859130859 -18.67013549804688 C 77.24231719970703 -25.89687347412109 75.36872100830078 -33.28260803222656 73.58535003662109 -39.7889404296875 C 72.00984954833984 -45.53699493408203 68.72843170166016 -52.22441101074219 65.56597900390625 -57.36058044433594 C 65.60072326660156 -53.01852416992188 65.85504150390625 -47.97097778320312 66.32068634033203 -43.25817108154297 L 69.76945495605469 -23.14646911621094 C 75.25254821777344 2.663963317871094 79.91831970214844 35.85502624511719 79.96482086181641 36.18726348876953 L 64.15748596191406 38.65032958984375 L 54.11872100830078 -19.82167053222656 C 52.54421997070312 -27.23330688476562 51.05238342285156 -33.30786895751953 49.68461608886719 -37.87677001953125 C 48.50834655761719 -41.80622863769531 47.12286376953125 -45.16796875 45.78486633300781 -47.85572814941406 C 45.69741821289062 -44.51288604736328 45.77916717529297 -39.97081756591797 46.20448303222656 -33.83440399169922 C 48.01561737060547 -7.701004028320312 52.23198699951172 39.19172668457031 52.27438354492188 39.66233062744141 L 36.36138916015625 41.31432723999023 C 34.38829040527344 24.5403938293457 30.39631652832031 -4.510570526123047 28.04214477539062 -11.17530822753906 C 27.20297241210938 -13.55142211914062 25.61198425292969 -18.05628204345703 24.06977844238281 -21.30818176269531 C 23.48776245117188 -20.27998352050781 22.91236877441406 -19.13283538818359 22.439697265625 -18.02976226806641 C 22.36282348632812 -16.28268432617188 22.28889465332031 -11.19357299804688 22.71055603027344 3.027496337890625 C 23.0330810546875 13.90586090087891 23.4466552734375 23.66482925415039 23.81144714355469 32.27613067626953 C 24.29525756835938 43.69689559936523 24.69142150878906 53.13016128540039 24.69142150878906 60.51172637939453 C 24.69142150878906 90.72048950195312 39.48371887207031 122.9999923706055 80.99998474121094 122.9999923706055 C 124.2098236083984 122.9999923706055 134.93359375 94.55886077880859 137.1910552978516 85.84202575683594 C 141.5036773681641 69.18939208984375 143.7274932861328 33.47682189941406 135.9669189453125 24.41474914550781 C 133.5129089355469 23.70481109619141 126.778076171875 22.99541473388672 120.6961517333984 22.83716201782227 L 114.3687515258789 22.67216110229492 L 113.0720520019531 16.47882843017578 C 112.9988555908203 16.12929534912109 105.6616516113281 -18.70920562744141 97.69255065917969 -38.97620391845703 C 92.93199157714844 -51.08322906494141 90.9884033203125 -55.42447662353516 88.43700408935547 -58.40088653564453 M 61.00468444824219 -73.04694366455078 C 66.72081756591797 -73.04694366455078 77.89258575439453 -54.33817291259766 81.30078125 -41.90367126464844 C 83.10430908203125 -35.32381439208984 84.99950408935547 -27.85463714599609 86.76256561279297 -20.54615783691406 C 89.92638397216797 -3.401290893554688 93.40189361572266 14.6932258605957 94.00392150878906 14.83982849121094 C 94.00791168212891 14.84080123901367 94.01173400878906 14.84127807617188 94.01548767089844 14.84127807617188 C 94.72017669677734 14.84127807617188 91.15099334716797 -2.354648590087891 86.76256561279297 -20.54615783691406 C 83.904541015625 -36.03390502929688 81.30078125 -50.74713897705078 81.30078125 -50.74713897705078 C 81.30078125 -50.74713897705078 77.04094696044922 -69.76721954345703 87.25646209716797 -69.76747131347656 C 87.38142395019531 -69.76747131347656 87.50835418701172 -69.76463317871094 87.63768768310547 -69.75887298583984 C 95.60121917724609 -63.35780334472656 96.82151794433594 -63.05333709716797 105.1376800537109 -41.90367126464844 C 113.4538497924805 -20.75400543212891 120.9023513793945 14.83982849121094 120.9023513793945 14.83982849121094 C 120.9023513793945 14.83982849121094 137.9825134277344 15.27626037597656 140.8456878662109 17.95702743530273 C 153.5098571777344 29.81309509277344 148.794921875 72.94529724121094 144.935546875 87.84766387939453 C 141.0761871337891 102.75 125.7350463867188 131 80.99998474121094 131 C 36.26495361328125 131 16.69142150878906 96.68636322021484 16.69142150878906 60.51172637939453 C 16.69142150878906 47.63359451293945 15.46038818359375 28.43526077270508 14.71405029296875 3.264595031738281 C 14.05331420898438 -19.01940155029297 14.56251525878906 -20.29786682128906 14.68800354003906 -20.29801940917969 C 14.70425415039062 -20.29803466796875 14.71405029296875 -20.27660369873047 14.71405029296875 -20.27660369873047 C 14.71405029296875 -20.27660369873047 19.14744567871094 -31.62470245361328 24.08592224121094 -32.05786895751953 C 24.17845153808594 -32.06598663330078 24.27102661132812 -32.06999969482422 24.36286926269531 -32.07001495361328 C 29.17228698730469 -32.07060241699219 33.02243041992188 -21.09627532958984 35.6273193359375 -13.72113800048828 C 39.10018920898438 -3.889240264892578 44.30661773681641 40.37982940673828 44.30661773681641 40.37982940673828 C 44.30661773681641 40.37982940673828 40.06155395507812 -6.76116943359375 38.22361755371094 -33.28130340576172 C 37.42068481445312 -44.86600494384766 37.11558532714844 -60.72530364990234 41.8968505859375 -62.44770812988281 C 42.20881652832031 -62.56008911132812 42.53115081787109 -62.61444854736328 42.86085510253906 -62.61452484130859 C 47.58426666259766 -62.61566162109375 53.96475219726562 -51.47509765625 57.34861755371094 -40.17097473144531 C 58.89540863037109 -35.00398254394531 60.45216369628906 -28.50703430175781 61.94409942626953 -21.48406219482422 L 72.04198455810547 37.29582977294922 C 72.04198455810547 37.29582977294922 67.43214416503906 4.349720001220703 61.94409942626953 -21.48406219482422 L 58.43618774414062 -41.90367126464844 C 58.43618774414062 -41.90367126464844 55.28852081298828 -73.04694366455078 61.00468444824219 -73.04694366455078 Z" stroke="none" fill="#592023"/>
  </g>
  <path id="Path_2" data-name="Path 2" d="M53.813,7.341S25.868-.526,8.91,2.553C3,3.625-8.415,4.291-6.374,12.91s39.8,11.344,44.316,14.8C44.7,32.887,39,51.879,31.793,60.047" transform="translate(71.118 89.547)" fill="none" stroke="#592023" stroke-linecap="round" stroke-linejoin="round" stroke-width="10"/>
  <path id="Path_7" data-name="Path 7" d="M0,0,.378,5.1.81,9.6" transform="translate(81.308 115.944)" fill="none" stroke="#592023" stroke-linecap="round" stroke-width="8"/>
</svg>
