<svg xmlns="http://www.w3.org/2000/svg" width="132.652" height="139.91" viewBox="0 0 132.652 139.91">
  <g id="Rock" transform="translate(0 0)">
    <g id="Path_1" data-name="Path 1" transform="translate(-16.437 8.91)" fill="#fff">
      <path d="M 80.99999237060547 127.0000152587891 C 70.84634399414062 127.0000152587891 61.68386459350586 125.1316604614258 53.76707458496094 121.4468460083008 C 46.50359725952148 118.0661163330078 40.25436782836914 113.1455535888672 35.19295120239258 106.8218460083008 C 30.42253303527832 100.8617248535156 26.74907493591309 93.72811889648438 24.27459526062012 85.61922454833984 C 21.89697074890137 77.82769775390625 20.69140815734863 69.38032531738281 20.69140815734863 60.51172256469727 C 20.69140815734863 58.30947113037109 20.64565849304199 55.42470169067383 20.59267807006836 52.08443069458008 C 20.46595001220703 44.09257507324219 20.29238700866699 33.14736557006836 20.65309524536133 23.68774223327637 C 20.8465747833252 18.61355400085449 21.17786598205566 14.41965866088867 21.63776206970215 11.22255420684814 C 22.29676246643066 6.641304492950439 23.04576301574707 5.248658657073975 23.2596378326416 4.930950164794922 C 24.04042816162109 3.770346164703369 25.24642944335938 2.727221012115479 26.6561164855957 1.992762804031372 C 28.18153381347656 1.198012828826904 29.88882446289062 0.777929425239563 31.59340858459473 0.777929425239563 C 32.84036636352539 0.777929425239563 34.07040405273438 1.001643419265747 35.25009155273438 1.442846775054932 C 36.02636337280273 1.820133924484253 38.61657333374023 3.805076599121094 40.83178329467773 5.721992015838623 L 45.62794876098633 9.87232494354248 L 47.26616287231445 3.896381855010986 C 47.40904998779297 3.50243067741394 48.79974746704102 -0.01718669943511486 53.24249267578125 -1.248903870582581 C 53.98813629150391 -1.455633044242859 54.74544906616211 -1.560445547103882 55.49342727661133 -1.560445547103882 C 58.92034530639648 -1.560445547103882 61.40161514282227 0.6174294352531433 61.42511749267578 0.6394294500350952 L 65.3233642578125 4.287283420562744 L 67.64394378662109 -0.3164214193820953 C 67.92922973632812 -0.7634058594703674 70.66520690917969 -4.730414867401123 77.92877197265625 -4.908999443054199 C 78.09262084960938 -4.881463527679443 79.42534637451172 -4.595386505126953 82.52716064453125 -2.247758150100708 C 84.44709777832031 -0.7946538925170898 85.93607330322266 0.6101377606391907 85.95088958740234 0.6241586208343506 L 89.65978240966797 4.133804321289062 L 92.12383270263672 -0.2096793651580811 C 92.24032592773438 -0.3674148619174957 92.82898712158203 -1.101669788360596 94.19721984863281 -1.855528831481934 C 95.68134307861328 -2.673258066177368 98.36811828613281 -3.648008108139038 102.7397232055664 -3.648008108139038 C 102.8609466552734 -3.648008108139038 102.9816360473633 -3.647278785705566 103.1050720214844 -3.64579963684082 C 104.6021194458008 -3.627737283706665 106.0129089355469 -2.910487174987793 107.4180755615234 -1.453049778938293 C 108.8152008056641 -0.003945556469261646 110.1229934692383 2.089054346084595 111.3050918579102 4.767762660980225 C 113.4492797851562 9.62663745880127 114.3282241821289 14.49855422973633 114.3368682861328 14.54720020294189 L 114.8806610107422 17.61320114135742 L 117.9863662719727 17.83817863464355 C 118.0306167602539 17.84138870239258 122.4930953979492 18.16832542419434 127.3620758056641 18.78567886352539 C 130.1712036132812 19.14186668395996 132.5561370849609 19.52236747741699 134.4505920410156 19.91659545898438 C 137.0309600830078 20.45353507995605 137.9895935058594 20.87303161621094 138.2406158447266 20.99995231628418 C 140.4911651611328 23.1922607421875 142.2938842773438 27.20563125610352 143.4596099853516 32.62478256225586 C 144.580810546875 37.83686828613281 145.1283264160156 44.26744842529297 145.0870056152344 51.73786544799805 C 145.0110321044922 65.47721862792969 142.9479675292969 79.56747436523438 141.0633087158203 86.84482574462891 C 140.3381195068359 89.64498901367188 138.892822265625 94.01116180419922 136.1255950927734 98.90974426269531 C 133.3269500732422 103.8639526367188 129.7920989990234 108.2816162109375 125.6192016601562 112.0400314331055 C 120.5947189331055 116.5654296875 114.643928527832 120.1188278198242 107.9320983886719 122.6015319824219 C 100.0417861938477 125.5201568603516 90.98051452636719 127.0000152587891 80.99999237060547 127.0000152587891 Z" stroke="none"/>
      <path d="M 77.3419189453125 -0.8786468505859375 C 72.81423950195312 -0.56982421875 71.18534851074219 1.590728759765625 71.15901184082031 1.590728759765625 C 71.15892791748047 1.590728759765625 71.15885925292969 1.590705871582031 71.15880584716797 1.590660095214844 L 66.18896484375 10.57632446289062 L 58.69170379638672 3.559738159179688 C 58.67973327636719 3.548561096191406 57.21928405761719 2.439399719238281 55.4940185546875 2.439529418945312 C 55.10122680664062 2.439559936523438 54.71433258056641 2.493896484375 54.31118011474609 2.605690002441406 C 51.923095703125 3.267768859863281 51.14356994628906 4.967002868652344 51.09670257568359 5.045875549316406 L 47.49399566650391 16.77692413330078 L 38.21427917480469 8.746719360351562 C 36.58247375488281 7.334609985351562 34.1673583984375 5.422660827636719 33.87605285644531 5.199607849121094 C 33.13754272460938 4.91973876953125 32.36973571777344 4.777870178222656 31.59384155273438 4.777923583984375 C 29.25065612792969 4.778060913085938 27.35177612304688 6.014266967773438 26.68428039550781 6.990554809570312 C 23.96340942382812 12.37195587158203 24.42022705078125 41.17708587646484 24.59220886230469 52.02100372314453 C 24.64559936523438 55.38834381103516 24.69142150878906 58.30826950073242 24.69142150878906 60.51171493530273 C 24.69142150878906 90.72047424316406 39.48370361328125 123.0000076293945 80.99999237060547 123.0000076293945 C 124.2098083496094 123.0000076293945 134.9335632324219 94.55887603759766 137.1910400390625 85.84201049804688 C 141.5069427490234 69.17688751220703 143.7299652099609 33.42220306396484 135.9485778808594 24.39340972900391 C 133.2387847900391 23.52022552490234 125.1453552246094 22.36928558349609 117.6963043212891 21.82765960693359 L 111.4856262207031 21.37606048583984 L 110.3983306884766 15.24576568603516 C 109.1687774658203 8.313507080078125 105.2578887939453 0.3804550170898438 102.7401275634766 0.3519821166992188 C 97.79405975341797 0.3522491455078125 95.817626953125 1.775634765625 95.62594604492188 1.775634765625 C 95.60951232910156 1.775634765625 95.60617828369141 1.765159606933594 95.615234375 1.742424011230469 L 90.6190185546875 10.54847717285156 L 83.20156860351562 3.529533386230469 C 81.52883148193359 1.946617126464844 78.73151397705078 -0.2078781127929688 77.3419189453125 -0.8786468505859375 M 77.95806884765625 -8.909927368164062 C 81.69521331787109 -8.909927368164062 88.70020294189453 -2.281257629394531 88.70020294189453 -2.281257629394531 C 88.70020294189453 -2.281257629394531 91.7447509765625 -7.647430419921875 102.7396926879883 -7.648025512695312 C 102.8769378662109 -7.648040771484375 103.0135726928711 -7.647201538085938 103.1533126831055 -7.645523071289062 C 114.4873046875 -7.5087890625 118.275390625 13.84864044189453 118.275390625 13.84864044189453 C 118.275390625 13.84864044189453 137.9825134277344 15.27626800537109 140.845703125 17.95703125 C 153.5098571777344 29.81308746337891 148.794921875 72.94532012939453 144.935546875 87.84766387939453 C 141.076171875 102.7500076293945 125.7350769042969 131 80.99999237060547 131 C 36.26493835449219 131 16.69142150878906 96.68637084960938 16.69142150878906 60.51171493530273 C 16.69142150878906 47.63358306884766 15.08570861816406 9.91058349609375 19.94142150878906 2.697265625 C 22.25968933105469 -0.7487030029296875 26.71646118164062 -3.2218017578125 31.59342956542969 -3.222076416015625 C 33.27296447753906 -3.22216796875 35.00164794921875 -2.928985595703125 36.7109375 -2.281257629394531 C 38.46263122558594 -1.617889404296875 43.44920349121094 2.697265625 43.44920349121094 2.697265625 C 43.44920349121094 2.697265625 45.255859375 -3.185546875 52.17383575439453 -5.103523254394531 C 53.3375244140625 -5.4261474609375 54.44981384277344 -5.560379028320312 55.49342346191406 -5.560462951660156 C 60.65389251708984 -5.560882568359375 64.158203125 -2.281257629394531 64.158203125 -2.281257629394531 C 64.158203125 -2.281257629394531 67.69923400878906 -8.68359375 77.8896484375 -8.9091796875 C 77.91212463378906 -8.909683227539062 77.93534851074219 -8.909927368164062 77.95806884765625 -8.909927368164062 Z" stroke="none" fill="#592023"/>
    </g>
    <path id="Path_2" data-name="Path 2" d="M53.813,7.341S25.868-.526,8.91,2.553C3,3.625-8.415,4.291-6.374,12.91s39.8,11.344,44.316,14.8C44.7,32.887,39,51.879,31.793,60.047" transform="translate(69.063 25.41)" fill="none" stroke="#592023" stroke-linecap="round" stroke-linejoin="round" stroke-width="10"/>
    <path id="Path_3" data-name="Path 3" d="M10,0s5.338,23.495,2.838,32.769S0,37.1,0,37.1" transform="translate(17.063 16.41)" fill="none" stroke="#592023" stroke-linecap="round" stroke-width="10"/>
    <path id="Path_4" data-name="Path 4" d="M10,0s5.338,30.508,2.838,42.549S0,48.167,0,48.167" transform="translate(40.063 14.41)" fill="none" stroke="#592023" stroke-linecap="round" stroke-width="10"/>
    <line id="Line_1" data-name="Line 1" x2="3" y2="16" transform="translate(71.063 11.41)" fill="none" stroke="#592023" stroke-linecap="round" stroke-width="8"/>
    <line id="Line_2" data-name="Line 2" x2="3" y2="16" transform="translate(71.063 11.41)" fill="none" stroke="#592023" stroke-linecap="round" stroke-width="8"/>
    <path id="Path_5" data-name="Path 5" d="M17.193,2.533a23.666,23.666,0,0,1-2.231,14.421c-3.75,7.226-11.38,0-11.38,0" transform="translate(60.063 46.41)" fill="none" stroke="#592023" stroke-linecap="round" stroke-width="10"/>
    <path id="Path_6" data-name="Path 6" d="M12.81,2.533A10.931,10.931,0,0,1,11.3,10.516c-2.542,4-7.715,0-7.715,0" transform="translate(83.544 47.41)" fill="none" stroke="#592023" stroke-linecap="round" stroke-width="10"/>
  </g>
</svg>
