<svg id="Scissors" xmlns="http://www.w3.org/2000/svg" width="132.652" height="202.626" viewBox="0 0 132.652 202.626">
  <g id="Path_1" data-name="Path 1" transform="translate(-16.437 71.626)" fill="#fff">
    <path d="M 80.99999237060547 126.9999923706055 C 70.84634399414062 126.9999923706055 61.68387222290039 125.1316452026367 53.7670783996582 121.4468231201172 C 46.50357818603516 118.0661163330078 40.25434112548828 113.1455535888672 35.19292831420898 106.8218460083008 C 30.42251777648926 100.8617324829102 26.74907684326172 93.72814178466797 24.27457618713379 85.61923217773438 C 21.89695930480957 77.82772827148438 20.6914005279541 69.38034820556641 20.6914005279541 60.5117301940918 C 20.6914005279541 58.30949401855469 20.64566612243652 55.42473220825195 20.59269523620605 52.08443832397461 C 20.46592903137207 44.09258270263672 20.29237174987793 33.14737701416016 20.653076171875 23.68773078918457 C 20.84657669067383 18.61355400085449 21.17787170410156 14.41964340209961 21.63775253295898 11.22255516052246 C 22.2967529296875 6.641290187835693 23.04575347900391 5.248642921447754 23.25963592529297 4.93093729019165 C 24.04043006896973 3.770348787307739 25.24642944335938 2.727201700210571 26.65610694885254 1.99276065826416 C 28.1815185546875 1.198025345802307 29.88881301879883 0.777937114238739 31.5934009552002 0.777937114238739 C 32.84025573730469 0.777937114238739 34.07028579711914 1.001621842384338 35.24991226196289 1.442787051200867 C 36.02368545532227 1.818782091140747 38.61421966552734 3.803990602493286 40.8321647644043 5.722319602966309 L 45.62801742553711 9.870348930358887 L 47.26609802246094 3.896578550338745 C 47.40852737426758 3.503736972808838 48.79890441894531 -0.01693044044077396 53.24251937866211 -1.248915910720825 C 53.98813629150391 -1.455621719360352 54.71678161621094 -1.560445308685303 55.40813446044922 -1.560445308685303 C 58.11352920532227 -1.560445308685303 59.73954391479492 0.05547915399074554 59.96895980834961 0.2987911403179169 L 68.75175476074219 11.69923114776611 L 67.00075531005859 -2.741651058197021 L 62.40960693359375 -42.36406326293945 L 62.39022445678711 -42.53141403198242 L 62.36113739013672 -42.67499542236328 C 62.33837127685547 -42.79610824584961 61.91310501098633 -45.10546875 61.95787048339844 -48.02468109130859 C 62.01301956176758 -51.62162017822266 62.74337005615234 -54.55620956420898 64.06999206542969 -56.51121139526367 C 65.12517547607422 -58.06620407104492 66.53645324707031 -59.01142883300781 68.48910522460938 -59.46341705322266 C 69.15203094482422 -59.40557098388672 69.69042205810547 -59.17906188964844 70.23889923095703 -58.73629760742188 C 71.023193359375 -58.10312271118164 71.80989837646484 -57.02241516113281 72.57716369628906 -55.5241813659668 C 74.39054870605469 -51.98321151733398 75.87328338623047 -46.57356262207031 77.44307708740234 -40.84629821777344 C 82.49948883056641 -22.39876937866211 88.34534454345703 3.31231951713562 89.81422424316406 12.30061340332031 L 97.76166534423828 11.615966796875 C 97.63060760498047 -1.646239399909973 100.0363998413086 -53.17665100097656 100.0607223510742 -53.69562149047852 L 100.0614852905273 -53.71182632446289 L 100.0615081787109 -53.71260070800781 C 100.0689086914062 -53.86332702636719 100.2770080566406 -57.82211303710938 101.5650482177734 -61.61959075927734 C 102.2344284057617 -63.59312057495117 103.0865173339844 -65.17379760742188 104.0291366577148 -66.19074249267578 C 104.7012939453125 -66.91588592529297 105.3913421630859 -67.34763336181641 106.1892166137695 -67.52774047851562 C 109.4977111816406 -64.65638732910156 111.9590072631836 -61.53292465209961 113.689811706543 -58.01603317260742 C 115.938720703125 -53.44641494750977 116.9896621704102 -48.19426727294922 116.9027252197266 -41.95941543579102 C 116.8969268798828 -41.52923965454102 116.9013977050781 5.430789947509766 116.90234375 14.84023094177246 L 116.9027252197266 18.73890686035156 L 120.800163269043 18.83852577209473 C 120.8377532958984 18.83949661254883 124.6542205810547 18.94105529785156 128.8628997802734 19.32302474975586 C 135.8446807861328 19.95667266845703 137.8608856201172 20.80451774597168 138.2304840087891 20.99010848999023 C 140.4859466552734 23.18016624450684 142.2920684814453 27.19717788696289 143.4596099853516 32.62475967407227 C 144.5807800292969 37.83687973022461 145.1283416748047 44.26743698120117 145.0870208740234 51.73787689208984 C 145.0110168457031 65.47723388671875 142.9479522705078 79.56746673583984 141.0632781982422 86.8448486328125 C 140.3381042480469 89.64499664306641 138.8928070068359 94.01116943359375 136.1255798339844 98.90972900390625 C 133.3269653320312 103.8639373779297 129.7920837402344 108.2816162109375 125.6191940307617 112.0400238037109 C 120.5947265625 116.5654067993164 114.643928527832 120.1188201904297 107.9321060180664 122.6015243530273 C 100.0417861938477 125.5201416015625 90.98051452636719 126.9999923706055 80.99999237060547 126.9999923706055 Z" stroke="none"/>
    <path d="M 106.0571441650391 -62.08740997314453 C 105.1187744140625 -60.11946105957031 104.2130584716797 -56.71002960205078 104.0563507080078 -53.50838470458984 C 104.0324325561523 -52.99800872802734 101.7002105712891 -3.045696258544922 101.7574234008789 10.98381423950195 C 102.2444610595703 14.03594589233398 102.5703811645508 17.16181945800781 100.1196517944336 20.02361297607422 L 97.66171264648438 22.86764526367188 L 93.94351959228516 22.83958053588867 L 93.01405334472656 22.83258056640625 L 92.11094665527344 22.61261367797852 C 86.23917388916016 21.18262481689453 85.82534027099609 15.73451614379883 85.76998138427734 12.36749649047852 C 84.17121124267578 2.990150451660156 78.50588226318359 -21.83723449707031 73.58535003662109 -39.78895568847656 C 72.11266326904297 -45.16192626953125 69.93618774414062 -53.10306549072266 68.43216705322266 -55.14183044433594 C 64.73851776123047 -52.76878356933594 66.28040313720703 -43.46803283691406 66.38301849365234 -42.82451629638672 L 70.97418212890625 -3.20208740234375 L 74.29865264892578 23.80911254882812 L 57.09535217285156 3.081245422363281 C 56.98545074462891 2.974079132080078 56.38755035400391 2.439445495605469 55.40865325927734 2.439548492431641 C 55.07794952392578 2.439579010009766 54.70867919921875 2.495445251464844 54.31114959716797 2.605678558349609 C 51.92308044433594 3.267745971679688 51.14361572265625 4.96697998046875 51.09671783447266 5.045845031738281 L 47.49448394775391 16.76924514770508 L 38.2158203125 8.748012542724609 C 36.4005126953125 7.178745269775391 34.09451293945312 5.381614685058594 33.87608337402344 5.199611663818359 C 33.13758850097656 4.919780731201172 32.36968994140625 4.777881622314453 31.59385681152344 4.777912139892578 C 29.25065612792969 4.778045654296875 27.35182189941406 6.014247894287109 26.68428039550781 6.990581512451172 C 23.96340942382812 12.3719482421875 24.42021179199219 41.17711639404297 24.59217834472656 52.02101516723633 C 24.64558410644531 55.38834762573242 24.69142150878906 58.30828094482422 24.69142150878906 60.51171493530273 C 24.69142150878906 90.72048187255859 39.48371887207031 123.0000152587891 81.00001525878906 123.0000152587891 C 124.2098159790039 123.0000152587891 134.9335784912109 94.55888366699219 137.1910552978516 85.84197998046875 C 141.5037078857422 69.18937683105469 143.7274932861328 33.47679901123047 135.9669494628906 24.41475677490234 C 133.512939453125 23.70479583740234 126.7781066894531 22.99539947509766 120.6961517333984 22.8371467590332 L 112.9030456542969 22.63447952270508 L 112.9023513793945 14.84061431884766 C 112.9023513793945 14.84061431884766 112.8973541259766 -41.58778381347656 112.9031219482422 -42.01522064208984 C 113.0207443237305 -50.45137023925781 110.8823318481445 -56.81929779052734 106.0571441650391 -62.08740997314453 M 107.1215438842773 -71.62641143798828 C 107.2567138671875 -71.62642669677734 107.3927764892578 -71.62339019775391 107.53125 -71.61722564697266 C 115.4947814941406 -65.21615600585938 121.1039505004883 -56.36305236816406 120.9023513793945 -41.9036865234375 C 120.8966522216797 -41.48078918457031 120.9023513793945 14.83981323242188 120.9023513793945 14.83981323242188 C 120.9023513793945 14.83981323242188 137.9825134277344 15.27627944946289 140.8457183837891 17.95704650878906 C 153.5098571777344 29.81307983398438 148.794921875 72.9453125 144.935546875 87.84764862060547 C 141.0761871337891 102.7500152587891 125.7350463867188 131.0000152587891 81.00001525878906 131.0000152587891 C 36.26495361328125 131.0000152587891 16.69142150878906 96.68637847900391 16.69142150878906 60.51171493530273 C 16.69142150878906 47.63357925415039 15.08570861816406 9.910579681396484 19.94142150878906 2.697280883789062 C 22.25970458984375 -0.7487106323242188 26.7164306640625 -3.221813201904297 31.59339904785156 -3.222076416015625 C 33.27294921875 -3.22216796875 35.00164794921875 -2.928981781005859 36.71095275878906 -2.281253814697266 C 38.46261596679688 -1.617885589599609 43.44921875 2.697280883789062 43.44921875 2.697280883789062 C 43.44921875 2.697280883789062 45.25585174560547 -3.185554504394531 52.17381286621094 -5.103523254394531 C 53.33750915527344 -5.4261474609375 54.41774749755859 -5.560379028320312 55.40811920166016 -5.560462951660156 C 60.30538177490234 -5.560874938964844 63.02735137939453 -2.281253814697266 63.02735137939453 -2.281253814697266 L 58.43618011474609 -41.9036865234375 C 58.43618011474609 -41.9036865234375 54.67967987060547 -60.91798400878906 68.14845275878906 -63.47852325439453 C 75.32421875 -63.46095275878906 77.89261627197266 -54.33818817138672 81.30078125 -41.9036865234375 C 86.42952728271484 -23.19230651855469 92.30032348632812 2.712230682373047 93.76187133789062 11.6555290222168 C 93.78154754638672 13.64680480957031 93.85690307617188 14.80401611328125 94.00391387939453 14.83981323242188 C 94.00791168212891 14.84078598022461 94.01173400878906 14.84126663208008 94.01548767089844 14.84126663208008 C 94.19819641113281 14.84126663208008 94.09355926513672 13.68513107299805 93.76187133789062 11.6555290222168 C 93.628173828125 -1.874149322509766 96.06511688232422 -53.88282012939453 96.06511688232422 -53.88282012939453 C 96.06511688232422 -53.88282012939453 96.810546875 -71.62555694580078 107.1215438842773 -71.62641143798828 Z" stroke="none" fill="#592023"/>
  </g>
  <path id="Path_2" data-name="Path 2" d="M53.813,7.341S25.868-.526,8.91,2.553C3,3.625-8.415,4.291-6.374,12.91s39.8,11.344,44.316,14.8C44.7,32.887,39,51.879,31.793,60.047" transform="translate(69.063 88.126)" fill="none" stroke="#592023" stroke-linecap="round" stroke-linejoin="round" stroke-width="10"/>
  <path id="Path_3" data-name="Path 3" d="M10,0s5.338,23.495,2.838,32.769S0,37.1,0,37.1" transform="translate(17.063 79.126)" fill="none" stroke="#592023" stroke-linecap="round" stroke-width="10"/>
  <path id="Path_4" data-name="Path 4" d="M10,0s5.338,30.508,2.838,42.549S0,48.167,0,48.167" transform="translate(40.063 77.126)" fill="none" stroke="#592023" stroke-linecap="round" stroke-width="10"/>
  <path id="Path_7" data-name="Path 7" d="M0,0,.378,5.1.81,9.6" transform="translate(79.253 114.524)" fill="none" stroke="#592023" stroke-linecap="round" stroke-width="8"/>
</svg>
